<svg version="1.2" xmlns="http://www.w3.org/2000/svg" viewBox="0 0 883 796" width="666" height="600">
	<title>reshot-illustration-doctor-app-ES2AHNXFCJ-ai</title>
	<style>
		.s0 { fill: #efecff } 
		.s1 { fill: none;stroke: #062721 } 
		.s2 { fill: #3aabcc } 
		.s3 { fill: none;stroke: #062721;stroke-width: 10 } 
		.s4 { fill: #f1e59d } 
		.s5 { fill: #fff6bf } 
		.s6 { fill: none;stroke: #fff9d9 } 
		.s7 { fill: none;stroke: #f1e59d } 
		.s8 { fill: #dbdbdb } 
		.s9 { fill: #f1f1f1 } 
		.s10 { fill: none;stroke: #f4f4f4 } 
		.s11 { fill: none;stroke: #dbdbdb } 
		.s12 { fill: #ffb2a7 } 
		.s13 { fill: #ffccc4 } 
		.s14 { fill: none;stroke: #ffe6e3 } 
		.s15 { fill: none;stroke: #ffb2a7 } 
		.s16 { fill: #ffffff } 
		.s17 { fill: #ff6600 } 
		.s18 { opacity: .1;fill: #ffffff } 
		.s19 { fill: #64a3e5 } 
		.s20 { fill: #1c154a } 
		.s21 { opacity: .5;fill: #ffffff } 
		.s22 { fill: #ffa07f } 
		.s23 { fill: #062721 } 
		.s24 { fill: #2f95ff } 
		.s25 { fill: none;stroke: #062721;stroke-width: 1.4 } 
		.s26 { fill: none;stroke: #ffffff;stroke-width: 4.8 } 
		.s27 { fill: #f9f8f8 } 
		.s28 { fill: none;stroke: #062721;stroke-width: 1.6 } 
		.s29 { fill: #df8d70 } 
		.s30 { fill: none;stroke: #ffffff;stroke-width: 3.6 } 
		.s31 { fill: none;stroke: #ffffff;stroke-linecap: round;stroke-width: 1.6 } 
		.s32 { fill: none;stroke: #ffffff;stroke-width: 1.2 } 
		.s33 { fill: none;stroke: #062721;stroke-width: 1.2 } 
		.s34 { fill: #948cff } 
	</style>
	<g id="Layer 1">
		<g id="&lt;Group&gt;">
		</g>
		<g id="&lt;Group&gt;">
		</g>
		<g id="&lt;Group&gt;">
			<g id="&lt;Group&gt;">
				<path id="Background" class="s0" d="m1023.1-256.6h473c19.3 0 35 15.7 35 35v453h-508c-19.3 0-35-15.7-35-35v-418c0-19.3 15.7-35 35-35z"/>
				<g id="Aid-Kit">
					<path id="Rectangle" class="s1" d="m146.1 181.4h131c6.6 0 12 5.4 12 12v82c0 6.6-5.4 12-12 12h-131c-6.6 0-12-5.4-12-12v-82c0-6.6 5.4-12 12-12z"/>
					<path id="Combined-Shape" fill-rule="evenodd" class="s2" d="m212.1 200.4c18.8 0 34 15.2 34 34 0 18.8-15.2 34-34 34-18.8 0-34-15.2-34-34 0-18.8 15.2-34 34-34zm2.4 15h-6c-0.9 0-1.6 0.7-1.6 1.6v12.2h-12.2c-0.9 0-1.6 0.7-1.6 1.6v6c0 0.9 0.7 1.6 1.6 1.6h12.2v12.2c0 0.9 0.7 1.6 1.6 1.6h6c0.9 0 1.6-0.7 1.6-1.6v-12.2h12.2c0.9 0 1.6-0.7 1.6-1.6v-6c0-0.9-0.7-1.6-1.6-1.6h-12.2v-12.2c0-0.9-0.7-1.6-1.6-1.6z"/>
					<path id="Path" class="s3" d="m232.1 180.9c0-12.4-10.1-22.5-22.5-22.5-12.4 0-22.5 10.1-22.5 22.5"/>
				</g>
				<g id="Pill">
					<g id="Oval-Copy-4">
						<g id="Mask">
							<path id="&lt;Path&gt;" class="s4" d="m144.6 299.4c8.5 0 15.5 7 15.5 15.5 0 8.6-7 15.5-15.5 15.5-8.6 0-15.5-6.9-15.5-15.5 0-8.5 6.9-15.5 15.5-15.5z"/>
						</g>
						<g id="Mask-Copy">
							<path id="&lt;Path&gt;" class="s5" d="m144.1 299.4c8.3 0 15 6.7 15 15 0 8.3-6.7 15-15 15-8.3 0-15-6.7-15-15 0-8.3 6.7-15 15-15z"/>
						</g>
					</g>
					<path id="Path-12-Copy" class="s6" d="m131.2 314.9h25.6"/>
					<path id="Path-12" class="s7" d="m131.2 313.9h25.6"/>
				</g>
				<g id="Pill-2">
					<g id="Pill-Copy">
						<g id="&lt;Group&gt;">
							<g id="&lt;Group&gt;">
								<path id="&lt;Path&gt;" class="s8" d="m161.6 274.4c6.3 0 11.5 5.2 11.5 11.5 0 6.4-5.2 11.5-11.5 11.5-6.4 0-11.5-5.1-11.5-11.5 0-6.3 5.1-11.5 11.5-11.5z"/>
							</g>
							<g id="&lt;Group&gt;">
								<path id="&lt;Path&gt;" class="s9" d="m161.2 274.4c6.2 0 11.1 5 11.1 11.1 0 6.2-4.9 11.2-11.1 11.2-6.1 0-11.1-5-11.1-11.2 0-6.1 5-11.1 11.1-11.1z"/>
							</g>
						</g>
						<path id="&lt;Path&gt;" class="s10" d="m151.6 285.9h19.1"/>
						<path id="&lt;Path&gt;" class="s11" d="m151.6 285.2h19.1"/>
					</g>
				</g>
				<g id="Pill-3">
					<g id="&lt;Group&gt;">
						<g id="&lt;Group&gt;">
							<path id="&lt;Path&gt;" class="s12" d="m180.1 304.4c5 0 9 4 9 9 0 5-4 9-9 9-5 0-9-4-9-9 0-5 4-9 9-9z"/>
						</g>
						<g id="&lt;Group&gt;">
							<path id="&lt;Path&gt;" class="s13" d="m179.8 304.4c4.8 0 8.7 3.9 8.7 8.7 0 4.8-3.9 8.7-8.7 8.7-4.8 0-8.7-3.9-8.7-8.7 0-4.8 3.9-8.7 8.7-8.7z"/>
						</g>
					</g>
					<path id="&lt;Path&gt;" class="s14" d="m172.3 313.4h14.9"/>
					<path id="&lt;Path&gt;" class="s15" d="m172.3 312.8h14.9"/>
				</g>
				<g id="Pill-Oval">
					<g id="&lt;Group&gt;">
						<path id="&lt;Path&gt;" class="s16" d="m292.6 135.4c4.7 0 8.5 3.8 8.5 8.5v20c0 4.7-3.8 8.5-8.5 8.5-4.7 0-8.5-3.8-8.5-8.5v-20c0-4.7 3.8-8.5 8.5-8.5z"/>
					</g>
					<path id="&lt;Path&gt;" class="s17" d="m283.1 154.4h19v19h-19z"/>
					<path id="&lt;Path&gt;" class="s18" d="m281.1 135.4h17v37h-17z"/>
					<path id="&lt;Path&gt;" class="s18" d="m288.6 147.4c0.8 0 1.5 0.7 1.5 1.5v13c0 0.8-0.7 1.5-1.5 1.5-0.8 0-1.5-0.7-1.5-1.5v-13c0-0.8 0.7-1.5 1.5-1.5z"/>
				</g>
				<g id="Pill-Oval-2">
					<g id="&lt;Group&gt;">
						<path id="&lt;Path&gt;" class="s16" d="m262.6 158.4c4.7 0 8.5 3.8 8.5 8.5v20c0 4.7-3.8 8.5-8.5 8.5-4.7 0-8.5-3.8-8.5-8.5v-20c0-4.7 3.8-8.5 8.5-8.5z"/>
					</g>
					<path id="&lt;Path&gt;" class="s19" d="m253.1 177.4h19v19h-19z"/>
					<path id="&lt;Path&gt;" class="s18" d="m251.1 158.4h17v37h-17z"/>
					<path id="&lt;Path&gt;" class="s18" d="m258.6 170.4c0.8 0 1.5 0.7 1.5 1.5v13c0 0.8-0.7 1.5-1.5 1.5-0.8 0-1.5-0.7-1.5-1.5v-13c0-0.8 0.7-1.5 1.5-1.5z"/>
				</g>
				<g id="Phone">
					<path id="&lt;Path&gt;" class="s20" d="m449.1 141.4h189c23.7 0 43 19.3 43 43v473c0 23.8-19.3 43-43 43h-189c-23.8 0-43-19.2-43-43v-473c0-23.7 19.2-43 43-43z"/>
					<g id="&lt;Group&gt;">
						<g id="&lt;Group&gt;">
							<g id="&lt;Group&gt;">
								<path id="&lt;Path&gt;" class="s0" d="m458.8 156.4h169.6c21.4 0 38.7 17.3 38.7 38.7v450.6c0 21.4-17.3 38.7-38.7 38.7h-169.6c-21.4 0-38.7-17.3-38.7-38.7v-450.6c0-21.4 17.3-38.7 38.7-38.7z"/>
							</g>
							<path id="&lt;Path&gt;" class="s21" d="m465.1 207.4h162c11 0 20 9 20 20v258c0 11.1-9 20-20 20h-162c-11.1 0-20-8.9-20-20v-258c0-11 8.9-20 20-20z"/>
							<g id="Doctor">
								<g id="&lt;Group&gt;">
									<g id="&lt;Group&gt;">
										<path id="Path-356" class="s22" d="m330.5 433.2l-12.2-32.8q4.2-14.7 2.1-26.8-2.1-12.1 6.6-21.4-10.1-3.5-14.1 5-4 8.6-6.9 13.8-5.9-10.6-7.7-15.3c-7-19-9.6-28.7-11.4-27.8q-3.5 1.6 0 24.3-3.1-5.3-4.3-7.8c-7.6-15.8-11-20.3-12.9-19.3-3.4 1.9 7.5 30.6 5.8 30.6-1.7 0-11.9-22.7-14.7-21.1q-2.9 1.6 7.3 28.9-8.7-15.6-11.5-14.5c-2.7 1.2 5.5 18.9 7.6 24.9 2.1 5.9 4.5 25 20.5 40.1l8 31.5z"/>
										<path id="Path-354" class="s23" d="m501 317.5q-5.8-31 0-35.4 16.8-31.6 50.8-25.8c33.9 5.9 48.3 22.8 41.9 60.1q-6.5 37.3-84.7 17.9z"/>
										<g id="Path-355">
											<g id="&lt;Group&gt;">
												<path id="&lt;Path&gt;" class="s24" d="m648.6 643.2q55.4 3.2 62.4-20.1c7-23.3-14.3-118.4-34.5-170.5q-20.2-52-96.8-64.7l-62.1 2.7q-77.1 17.1-91.7 42-14.7 24.9-56.4 85.5-37.6-105.3-37.6-105.3l-51.8 19.8c0 0 42 182.9 76.3 188.2q34.2 5.3 88.4-57.8v162.9h203.8z"/>
											</g>
											<path id="&lt;Path&gt;" class="s16" d="m512.9 389.7l29.7 144.8 32.1-147.5z"/>
											<path id="Path-363" class="s25" d="m512.9 389.7l-30.9 60.8 29.5 8.1-19.7 15.9 50.8 85"/>
											<path id="Path-363-Copy" class="s25" d="m575.3 387.3l30.9 60.8-29.5 8.1 19.7 15.9-50.8 87.4"/>
											<path id="Path-374" class="s26" d="m599.5 435.9q-1.6-27-10.6-48"/>
											<path id="Path-375" class="s26" d="m505.4 389.7q-28 8.2-28 62 0 53.7 0 66.3"/>
											<path id="Oval" class="s16" d="m476.9 505.5c6.6 0 12 5.3 12 12 0 6.6-5.4 12-12 12-6.6 0-12-5.4-12-12 0-6.7 5.4-12 12-12z"/>
										</g>
										<g id="Group-18">
											<path id="&lt;Path&gt;" class="s27" d="m509.3 521.1h82.6v118.6h-82.6z"/>
											<path id="Path-131" class="s28" d="m522.5 536.2h57.4"/>
											<path id="Path-131-Copy" class="s28" d="m522.5 551.8h42.4"/>
											<path id="Path-131-Copy-2" class="s28" d="m522.5 566.2h57.4"/>
											<path id="Path-131-Copy-3" class="s28" d="m522.5 581.8h42.4"/>
										</g>
										<g id="Left-Hand">
											<path id="Path-69" class="s22" d="m592.1 592.5l-22.4-15.2-14.7-3.8q-4.9-1.7-5.3 0c-0.4 1.7 2.4 6 3.6 7.3q1.2 1.2 12.6 5.7l-19-3.5-16.9-8.3q-4.1-1.5-4.9 0.6-0.9 2 2.1 4.6l15.1 9.5q-5.8-1.1-6.4-0.9c-0.6 0.3-1.9 0.9-2.2 3.1q-0.2 2.2 1.6 4.8l0.8 0.7q-1.9 1.6-2.1 3.7-0.3 2.1 1.3 3.6l0.4 0.4q-1.5 1.8-1.5 3.6 0 1.8 1.1 3l18.7 10.8q21.8 3.1 38.1 1.5z"/>
											<path id="Path-88" class="s28" d="m535.7 597.9l7.2 2.4"/>
											<path id="Path-89" class="s28" d="m535.7 605.1l8.4 3.6"/>
											<path id="Path-90" class="s28" d="m541.7 589.5l7.2 2.4"/>
										</g>
										<g id="Path-357">
											<g id="&lt;Group&gt;">
												<path id="&lt;Path&gt;" class="s22" d="m514.3 349.7q5.1 23.4 3.4 41.2 13.9 34.1 31.9 34.1 17.9 0 30.2-36.8-2.4-15.2 1.3-30.9 3.7-15.7-66.8-7.6z"/>
											</g>
											<path id="&lt;Path&gt;" class="s29" d="m579.5 363q-13.8 31.8-46.3 31.8-14.6 2.1 4.3 28.7l-27.9-29.4 4.7-39.1z"/>
										</g>
										<path id="Path-353" class="s22" d="m591 341.6c2.1-1.1 4.7-5.6 5.8-14.7 1.1-9.1-2.7-10.8-5-10.1q-2.2 0.8-7.3 11.7l0.3-15.9q-8-8.5-8.4-20.9-24.1 8.1-52.7-7.6c-2.6 4.6-4.8 7.9-7.1 10.6q-2.5 3.1-6.9 6.6l0.8 27.2-7.1-11.7c-9.3 0-2.5 18.4 0 22.9q2.5 4.6 8.3 1.9c0 0 9.2 42.6 34.9 44.5 25.7 1.9 38.2-32.3 38.2-44.5q4 1.2 6.2 0z"/>
										<path id="Path-358" class="s25" d="m280 384.6q6.6-8.9 26.6-14.1-16.6 12.9-9.1 28.2"/>
										<path id="Path-352" class="s25" d="m285.4 339.3q2 16.3 3.2 20.2"/>
										<path id="Path-359" class="s25" d="m273.4 345.7l4 14.9"/>
										<path id="Path-360" class="s25" d="m264.7 354.3l4.1 11.3"/>
										<path id="Path-361" class="s25" d="m266.7 368c2.1 0 5.6-11 26.6-8.1"/>
										<path id="Path-364" class="s25" d="m444.7 522.1v133.5"/>
										<path id="Path-365" class="s25" d="m280.2 432.9l51.8-19.8 37.5 105.3v26.1"/>
										<path id="Path-366" class="s16" d="m549.3 364.1q-7.2 0-12.6-6.7h25.1q-5.3 6.7-12.5 6.7z"/>
										<path id="Path-367" class="s25" d="m544.6 321.3l-1.9 24.9q5.5 4.4 14.1 0"/>
										<path id="Oval-Copy-6" class="s23" d="m531.9 323.1c1.3 0 2.3 1 2.3 2.2 0 1.3-1 2.3-2.3 2.3-1.2 0-2.2-1-2.2-2.3 0-1.2 1-2.2 2.2-2.2z"/>
										<g id="Group-19">
											<path id="Path-373" class="s30" d="m634.4 535.2q-53.7 2.6-51.9-81.9 1.2-8.7 6.2-13.5c5.1-4.8 19.1-7 26.3 4.1 12.8 20.1 11.5 90.3-26.3 98.6"/>
											<path id="&lt;Path&gt;" class="s23" d="m636.9 530.8c2.4 0 4.2 1.9 4.2 4.2 0 2.3-1.8 4.2-4.2 4.2-2.3 0-4.2-1.9-4.2-4.2 0-2.3 1.9-4.2 4.2-4.2z"/>
											<path id="Oval-Copy-18" class="s23" d="m588.9 538c2.4 0 4.2 1.9 4.2 4.2 0 2.3-1.8 4.2-4.2 4.2-2.3 0-4.2-1.9-4.2-4.2 0-2.3 1.9-4.2 4.2-4.2z"/>
										</g>
										<path id="Oval-Copy-17" class="s23" d="m558.3 323.1c1.3 0 2.3 1 2.3 2.2 0 1.3-1 2.3-2.3 2.3-1.2 0-2.2-1-2.2-2.3 0-1.2 1-2.2 2.2-2.2z"/>
										<path id="Oval-Copy-7" class="s31" d="m530.7 315.9c5.3 0 9.5 4.2 9.5 9.4 0 5.3-4.2 9.5-9.5 9.5-5.2 0-9.4-4.2-9.4-9.5 0-5.2 4.2-9.4 9.4-9.4z"/>
										<path id="Oval-Copy-16" class="s31" d="m559.5 315.9c5.3 0 9.5 4.2 9.5 9.4 0 5.3-4.2 9.5-9.5 9.5-5.2 0-9.4-4.2-9.4-9.5 0-5.2 4.2-9.4 9.4-9.4z"/>
										<path id="Path-368" class="s32" d="m540.2 323.1h9.9"/>
										<path id="Path-369" class="s32" d="m569 323.1l20.2-5.6"/>
										<path id="Path-370" class="s32" d="m521.3 323.1l-15.9-7.2"/>
										<path id="Path-371" class="s33" d="m522.9 314.6q7.2-4.5 14.6-0.6"/>
										<path id="Path-371-Copy" class="s33" d="m552.9 314.6q7.2-4.5 14.6-0.6"/>
										<path id="Path-362" class="s25" d="m693.5 606.9q-4.2-13.3-16.2-15l-85.2-2.4v41.2q55.6 17.9 98.4 9"/>
										<path id="Path-372" class="s25" d="m642.8 495.4l4 96.5"/>
									</g>
								</g>
							</g>
						</g>
					</g>
				</g>
				<g id="&lt;Group&gt;">
					<g id="&lt;Group&gt;">
						<path id="&lt;Path&gt;" class="s22" d="m330.5 433.2l-12.2-32.8q4.2-14.7 2.1-26.8-2.1-12.1 6.6-21.4-10.1-3.5-14.1 5-4 8.6-6.9 13.8-5.9-10.6-7.7-15.3c-7-19-9.6-28.7-11.4-27.8q-3.5 1.6 0 24.3-3.1-5.3-4.3-7.8c-7.6-15.8-11-20.3-12.9-19.3-3.4 1.9 7.5 30.6 5.8 30.6-1.7 0-11.9-22.7-14.7-21.1q-2.9 1.6 7.3 28.9-8.7-15.6-11.5-14.5c-2.7 1.2 5.5 18.9 7.6 24.9 2.1 5.9 4.5 25 20.5 40.1l8 31.5z"/>
						<path id="&lt;Path&gt;" class="s23" d="m501 317.5q-5.8-31 0-35.4 16.8-31.6 50.8-25.8c33.9 5.9 48.3 22.8 41.9 60.1q-6.5 37.3-84.7 17.9z"/>
						<g id="&lt;Group&gt;">
							<g id="&lt;Group&gt;">
								<path id="&lt;Path&gt;" class="s24" d="m648.6 643.2q55.4 3.2 62.4-20.1c7-23.3-14.3-118.4-34.5-170.5q-20.2-52-96.8-64.7l-62.1 2.7q-77.1 17.1-91.7 42-14.7 24.9-56.4 85.5-37.6-105.3-37.6-105.3l-51.8 19.8c0 0 42 182.9 76.3 188.2q34.2 5.3 88.4-57.8v102.9h203.8z"/>
							</g>
							<path id="&lt;Path&gt;" class="s16" d="m512.9 389.7l29.7 144.8 32.1-147.5z"/>
							<path id="&lt;Path&gt;" class="s25" d="m512.9 389.7l-30.9 60.8 29.5 8.1-19.7 15.9 50.8 85"/>
							<path id="&lt;Path&gt;" class="s25" d="m575.3 387.3l30.9 60.8-29.5 8.1 19.7 15.9-50.8 87.4"/>
							<path id="&lt;Path&gt;" class="s26" d="m599.5 435.9q-1.6-27-10.6-48"/>
							<path id="&lt;Path&gt;" class="s26" d="m505.4 389.7q-28 8.2-28 62 0 53.7 0 66.3"/>
							<path id="&lt;Path&gt;" class="s16" d="m476.9 505.5c6.6 0 12 5.3 12 12 0 6.6-5.4 12-12 12-6.6 0-12-5.4-12-12 0-6.7 5.4-12 12-12z"/>
						</g>
						<g id="&lt;Group&gt;">
							<path id="&lt;Path&gt;" class="s27" d="m509.3 521.1h82.6v118.6h-82.6z"/>
							<path id="&lt;Path&gt;" class="s28" d="m522.5 536.2h57.4"/>
							<path id="&lt;Path&gt;" class="s28" d="m522.5 551.8h42.4"/>
							<path id="&lt;Path&gt;" class="s28" d="m522.5 566.2h57.4"/>
							<path id="&lt;Path&gt;" class="s28" d="m522.5 581.8h42.4"/>
						</g>
						<g id="&lt;Group&gt;">
							<path id="&lt;Path&gt;" class="s22" d="m592.1 592.5l-22.4-15.2-14.7-3.8q-4.9-1.7-5.3 0c-0.4 1.7 2.4 6 3.6 7.3q1.2 1.2 12.6 5.7l-19-3.5-16.9-8.3q-4.1-1.5-4.9 0.6-0.9 2 2.1 4.6l15.1 9.5q-5.8-1.1-6.4-0.9c-0.6 0.3-1.9 0.9-2.2 3.1q-0.2 2.2 1.6 4.8l0.8 0.7q-1.9 1.6-2.1 3.7-0.3 2.1 1.3 3.6l0.4 0.4q-1.5 1.8-1.5 3.6 0 1.8 1.1 3l18.7 10.8q21.8 3.1 38.1 1.5z"/>
							<path id="&lt;Path&gt;" class="s28" d="m535.7 597.9l7.2 2.4"/>
							<path id="&lt;Path&gt;" class="s28" d="m535.7 605.1l8.4 3.6"/>
							<path id="&lt;Path&gt;" class="s28" d="m541.7 589.5l7.2 2.4"/>
						</g>
						<g id="&lt;Group&gt;">
							<g id="&lt;Group&gt;">
								<path id="&lt;Path&gt;" class="s22" d="m514.3 349.7q5.1 23.4 3.4 41.2 13.9 34.1 31.9 34.1 17.9 0 30.2-36.8-2.4-15.2 1.3-30.9 3.7-15.7-66.8-7.6z"/>
							</g>
							<path id="&lt;Path&gt;" class="s29" d="m579.5 363q-13.8 31.8-46.3 31.8-14.6 2.1 4.3 28.7l-27.9-29.4 4.7-39.1z"/>
						</g>
						<path id="&lt;Path&gt;" class="s22" d="m591 341.6c2.1-1.1 4.7-5.6 5.8-14.7 1.1-9.1-2.7-10.8-5-10.1q-2.2 0.8-7.3 11.7l0.3-15.9q-8-8.5-8.4-20.9-24.1 8.1-52.7-7.6c-2.6 4.6-4.8 7.9-7.1 10.6q-2.5 3.1-6.9 6.6l0.8 27.2-7.1-11.7c-9.3 0-2.5 18.4 0 22.9q2.5 4.6 8.3 1.9c0 0 9.2 42.6 34.9 44.5 25.7 1.9 38.2-32.3 38.2-44.5q4 1.2 6.2 0z"/>
						<path id="&lt;Path&gt;" class="s25" d="m280 384.6q6.6-8.9 26.6-14.1-16.6 12.9-9.1 28.2"/>
						<path id="&lt;Path&gt;" class="s25" d="m285.4 339.3q2 16.3 3.2 20.2"/>
						<path id="&lt;Path&gt;" class="s25" d="m273.4 345.7l4 14.9"/>
						<path id="&lt;Path&gt;" class="s25" d="m264.7 354.3l4.1 11.3"/>
						<path id="&lt;Path&gt;" class="s25" d="m266.7 368c2.1 0 5.6-11 26.6-8.1"/>
						<path id="&lt;Path&gt;" class="s25" d="m444.7 522.1v133.5"/>
						<path id="&lt;Path&gt;" class="s25" d="m280.2 432.9l51.8-19.8 37.5 105.3v26.1"/>
						<path id="&lt;Path&gt;" class="s16" d="m549.3 364.1q-7.2 0-12.6-6.7h25.1q-5.3 6.7-12.5 6.7z"/>
						<path id="&lt;Path&gt;" class="s25" d="m544.6 321.3l-1.9 24.9q5.5 4.4 14.1 0"/>
						<path id="&lt;Path&gt;" class="s23" d="m531.9 323.1c1.3 0 2.3 1 2.3 2.2 0 1.3-1 2.3-2.3 2.3-1.2 0-2.2-1-2.2-2.3 0-1.2 1-2.2 2.2-2.2z"/>
						<g id="&lt;Group&gt;">
							<path id="&lt;Path&gt;" class="s30" d="m634.4 535.2q-53.7 2.6-51.9-81.9 1.2-8.7 6.2-13.5c5.1-4.8 19.1-7 26.3 4.1 12.8 20.1 11.5 90.3-26.3 98.6"/>
							<path id="&lt;Path&gt;" class="s23" d="m636.9 530.8c2.4 0 4.2 1.9 4.2 4.2 0 2.3-1.8 4.2-4.2 4.2-2.3 0-4.2-1.9-4.2-4.2 0-2.3 1.9-4.2 4.2-4.2z"/>
							<path id="&lt;Path&gt;" class="s23" d="m588.9 538c2.4 0 4.2 1.9 4.2 4.2 0 2.3-1.8 4.2-4.2 4.2-2.3 0-4.2-1.9-4.2-4.2 0-2.3 1.9-4.2 4.2-4.2z"/>
						</g>
						<path id="&lt;Path&gt;" class="s23" d="m558.3 323.1c1.3 0 2.3 1 2.3 2.2 0 1.3-1 2.3-2.3 2.3-1.2 0-2.2-1-2.2-2.3 0-1.2 1-2.2 2.2-2.2z"/>
						<path id="&lt;Path&gt;" class="s31" d="m530.7 315.9c5.3 0 9.5 4.2 9.5 9.4 0 5.3-4.2 9.5-9.5 9.5-5.2 0-9.4-4.2-9.4-9.5 0-5.2 4.2-9.4 9.4-9.4z"/>
						<path id="&lt;Path&gt;" class="s31" d="m559.5 315.9c5.3 0 9.5 4.2 9.5 9.4 0 5.3-4.2 9.5-9.5 9.5-5.2 0-9.4-4.2-9.4-9.5 0-5.2 4.2-9.4 9.4-9.4z"/>
						<path id="&lt;Path&gt;" class="s32" d="m540.2 323.1h9.9"/>
						<path id="&lt;Path&gt;" class="s32" d="m569 323.1l20.2-5.6"/>
						<path id="&lt;Path&gt;" class="s32" d="m521.3 323.1l-15.9-7.2"/>
						<path id="&lt;Path&gt;" class="s33" d="m522.9 314.6q7.2-4.5 14.6-0.6"/>
						<path id="&lt;Path&gt;" class="s33" d="m552.9 314.6q7.2-4.5 14.6-0.6"/>
						<path id="&lt;Path&gt;" class="s25" d="m693.5 606.9q-4.2-13.3-16.2-15l-85.2-2.4v41.2q55.6 17.9 98.4 9"/>
						<path id="&lt;Path&gt;" class="s25" d="m642.8 495.4l4 96.5"/>
					</g>
				</g>
				<path id="&lt;Path&gt;" class="s20" d="m479.1 150.4h130v11c0 6.6-5.4 12-12 12h-106c-6.6 0-12-5.4-12-12z"/>
				<g id="Chart">
					<path id="Path-377" class="s34" d="m472.4 301v-41.1c0-6.7-5.4-12-12-12h-101.9c-6.7 0-12 5.3-12 12v31.7c0 6.6 5.3 12 12 12h91.7l22.2 20.8z"/>
					<path id="&lt;Path&gt;" class="s16" d="m386.1 272.4c2.2 0 4 1.8 4 4 0 2.2-1.8 4-4 4-2.2 0-4-1.8-4-4 0-2.2 1.8-4 4-4z"/>
					<path id="Oval-Copy-19" class="s16" d="m406.1 272.4c2.2 0 4 1.8 4 4 0 2.2-1.8 4-4 4-2.2 0-4-1.8-4-4 0-2.2 1.8-4 4-4z"/>
					<path id="Oval-Copy-20" class="s16" d="m426.1 272.4c2.2 0 4 1.8 4 4 0 2.2-1.8 4-4 4-2.2 0-4-1.8-4-4 0-2.2 1.8-4 4-4z"/>
				</g>
			</g>
		</g>
	</g>
</svg>