<svg version="1.2" xmlns="http://www.w3.org/2000/svg" viewBox="0 0 4000 4000" width="100" height="100">
	<title>logoHospital-svg</title>
	<defs>
		<clipPath clipPathUnits="userSpaceOnUse" id="cp1">
			<path d="m2427.94 1346.53c0 0 5.67-190.04-148.65-484.66 0 0 14.02 303.97-191.74 495.71-205.76 191.74-755.25 81.84-834.75 745.9 0 0 95.87-175.36 282.93-243.18 187.06-67.81 140.3 100.55 112.24 210.45-28.06 109.9-87.4 474.63 295.35 686.26 382.75 211.64 492.64-625.46 492.64-625.46 0 0 9.37-526.1-8.02-785.02z"/>
		</clipPath>
		<linearGradient id="g1" x2="1" gradientUnits="userSpaceOnUse" gradientTransform="matrix(-1307.105,-2962.149,2387.471,-1053.518,2541.675,3484.842)">
			<stop offset="0" stop-color="#0000ff"/>
			<stop offset="1" stop-color="#ff00ff"/>
		</linearGradient>
		<clipPath clipPathUnits="userSpaceOnUse" id="cp2">
			<path d="m2427.94 1346.53c0 0 254.38 284.13 311.87 741.32 57.48 457.18-227.21 835.77-629.64 737.76-283.05-68.95-459.78-321.07-407.35-612.92 69.42-386.45 709.44-493.65 725.12-866.16z"/>
		</clipPath>
		<linearGradient id="g2" x2="1" gradientUnits="userSpaceOnUse" gradientTransform="matrix(926.281,-1820.001,1642.067,835.722,1809.268,2949.641)">
			<stop offset="0" stop-color="#0000ff"/>
			<stop offset="1" stop-color="#00ffff"/>
		</linearGradient>
		<clipPath clipPathUnits="userSpaceOnUse" id="cp3">
			<path d="m1844.38 1003.37c102.67 0 185.9 83.23 185.9 185.89 0 102.66-83.23 185.89-185.9 185.89-102.66 0-185.89-83.23-185.89-185.89 0-102.66 83.23-185.89 185.89-185.89z"/>
		</clipPath>
		<linearGradient id="g3" x2="1" gradientUnits="userSpaceOnUse" gradientTransform="matrix(71.901,-1060.494,1060.512,71.902,1788.107,2019.291)">
			<stop offset="0" stop-color="#0000ff"/>
			<stop offset="1" stop-color="#ff00ff"/>
		</linearGradient>
	</defs>
	<style>
		.s0 { fill: #ffffff } 
		.s1 { fill: #000000 } 
		.s2 { fill: url(#g1) } 
		.s3 { opacity: .3;fill: #1e003d } 
		.s4 { fill: url(#g2) } 
		.s5 { fill: url(#g3) } 
		.s6 { opacity: .3;fill: #00ffff } 
		.s7 { opacity: .3;fill: #020c6a } 
		.s8 { fill: none } 
	</style>
	<g id="Layer">
		<path id="Layer" class="s0" d="m-211.5 4916.5h3967v3967h-3967z"/>
		<path id="Layer" fill-rule="evenodd" class="s1" d="m2406.3 5020.4v119.7h-29.2v-71.8l-26.8 71.8h-23.5l-26.9-71.9v71.9h-29.2v-119.7h34.5l33.5 82.9 33.3-82.9zm-227.1 0v71.6q0 10.8 5.3 16.6 5.3 5.8 15.5 5.8 10.2 0 15.7-5.8 5.4-5.8 5.4-16.6v-71.6h29.2v71.5q0 16-6.8 27.1-6.9 11.1-18.4 16.7-11.5 5.6-25.6 5.6-14.2 0-25.3-5.5-11.2-5.6-17.7-16.7-6.5-11.2-6.5-27.2v-71.5zm-90.1 120.9q-13.2 0-23.6-4.2-10.4-4.3-16.6-12.7-6.2-8.3-6.6-20.1h31.1q0.6 6.7 4.6 10.2 3.9 3.5 10.2 3.5 6.5 0 10.2-3 3.8-3 3.8-8.3 0-4.4-3-7.3-3-2.9-7.3-4.8-4.4-1.9-12.4-4.3-11.6-3.5-18.9-7.1-7.4-3.6-12.6-10.6-5.3-7-5.3-18.2 0-16.7 12.1-26.2 12.1-9.5 31.5-9.5 19.8 0 31.9 9.5 12.1 9.5 13 26.3h-31.6q-0.3-5.8-4.2-9.1-4-3.3-10.1-3.3-5.3 0-8.5 2.8-3.3 2.8-3.3 8.1 0 5.8 5.5 9 5.4 3.3 17 7 11.6 4 18.9 7.5 7.2 3.6 12.5 10.4 5.3 6.9 5.3 17.6 0 10.2-5.2 18.6-5.2 8.3-15.1 13.3-9.9 4.9-23.3 4.9zm-58.5-82.3q0 10.4-4.8 19-4.8 8.6-14.7 13.9-9.9 5.3-24.5 5.3h-18.1v42.9h-29.1v-119.7h47.2q14.3 0 24.2 5 9.9 4.9 14.8 13.6 5 8.7 5 20zm-46.2 15q8.3 0 12.4-4 4.1-3.9 4.1-11 0-7.2-4.1-11.1-4.1-3.9-12.4-3.9h-15.9v30zm-66.1-53.6v119.7h-29.2v-119.7zm-50.1 0v119.7h-29.2v-71.8l-26.7 71.8h-23.6l-26.9-71.9v71.9h-29.2v-119.7h34.5l33.6 82.9 33.2-82.9zm-198.6 23.4v24.2h39v22.5h-39v26.3h44.1v23.3h-73.3v-119.7h73.3v23.4zm-79.2 96.3l-24.9-45.2h-7v45.2h-29.2v-119.7h49q14.1 0 24.1 5 10 4.9 14.9 13.5 4.9 8.6 5 19.2-0.1 11.9-6.8 21.3-6.7 9.4-19.8 13.3l27.6 47.4zm-31.9-65.8h18.1q8 0 12-3.9 4-3.9 4-11.1 0-6.8-4-10.7-4-4-12-4h-18.1zm-106.6 67q-16.9 0-30.9-7.8-14.1-7.8-22.3-21.9-8.3-14.1-8.3-31.6 0-17.6 8.3-31.6 8.2-14 22.3-21.8 14.1-7.8 30.9-7.8 16.9 0 31 7.8 14 7.8 22.1 21.8 8.1 14 8.1 31.6 0 17.5-8.1 31.6-8.2 14.1-22.2 21.9-14 7.8-30.9 7.8zm0-26.5q14.4 0 23-9.6 8.6-9.5 8.6-25.2 0-15.9-8.6-25.3-8.6-9.5-23-9.5-14.5 0-23.1 9.4-8.6 9.3-8.6 25.4 0 15.8 8.6 25.3 8.6 9.4 23.1 9.5zm771.8 82.6v-31.3h7.1v44h-5.4l-25-31v31h-7.1v-44h5.4zm-80.7 3.5h-23.9l-4.1 9.2h-7.5l19.7-44h7.7l19.8 44h-7.5zm-11.9-27.4l-9.3 21h18.6zm-64.7 2.7q-2.3-2.3-5.5-3.5-3.3-1.2-6.4-1.2-7.5 0-11.9 4.9-4.4 4.9-4.4 12.1 0 6.7 4.1 11.3 4.1 4.6 12.2 4.6 6.1 0 10.7-3.9v-8.9h-12.2v-6.3h18.8v18q-7 7.7-17.3 7.7-5.9 0-10.5-1.9-4.5-1.8-7.2-5-2.7-3.2-4.1-7.1-1.4-3.9-1.4-8.5 0-10 6.2-16.7 6.1-6.8 17-6.8 9.5 0 16.3 6.7zm-79.2-4.2q5.9 6.7 5.9 16.3 0 4.5-1.4 8.5-1.5 4.1-4.1 7.3-2.7 3.2-7.1 5.1-4.4 1.8-10 1.8-5.5 0-9.9-1.9-4.4-1.9-7.1-5.1-2.6-3.2-4.1-7.2-1.4-4-1.4-8.5 0-10.1 6.4-16.6 6.3-6.5 16.3-6.5 10.7 0.1 16.5 6.8zm-31.2 22.2q0.9 2.8 2.7 5.2 1.8 2.3 4.9 3.7 3 1.5 6.9 1.5 7.8 0 11.7-4.7 3.9-4.6 3.9-11.5 0-4.3-1.6-7.9-1.5-3.7-5.1-6.2-3.6-2.6-8.7-2.7-7.5 0-11.6 4.7-4.1 4.7-4.1 12.1 0.1 3 1 5.8zm-66.7-28.2v37.5h23.2v6.6h-30.2v-44.1zm-54.9 9.8q-1.6-2.3-4.5-3.6-2.9-1.2-6.4-1.3-4.5 0-7.3 1.8-2.9 1.8-2.9 4.9 0 2.9 2.8 4.2 2.7 1.3 7.9 2.1 3.9 0.5 6.7 1.3 2.8 0.7 5.5 2.2 2.7 1.5 4.1 4 1.4 2.6 1.4 6.1 0 4.7-2.7 7.9-2.8 3.1-6.7 4.4-3.9 1.3-8.8 1.3-13.6 0-19-10l5.3-3.5q4.3 7.2 13.7 7.2 2.9 0 5.3-0.6 2.4-0.7 4.1-2.4 1.8-1.7 1.8-4.3 0-3.3-3-4.9-3-1.6-8.3-2.3-3-0.4-5.2-0.9-2.2-0.5-4.6-1.5-2.3-0.9-3.8-2.2-1.5-1.3-2.5-3.5-0.9-2.1-0.9-4.8 0-3.2 1.5-5.8 1.5-2.5 4-3.9 2.5-1.5 5.4-2.2 2.9-0.7 6-0.7 11.8 0 16.5 7.4zm-66.3 34.3h-8.2l-13.4-15.2h-9.3v15.2h-7.1v-44.1q3.4 0 10.3 0 6.8 0.1 10.2 0.1 7.3 0 11.4 4.2 4.2 4.2 4.2 10.2 0 5.2-3 9-2.9 3.8-9 4.7l13.2 14.6zm-31-37.6v16h13.4q4.2 0 6.3-2.3 2.1-2.2 2.1-5.6 0-3.2-2.1-5.7-2.1-2.4-6.2-2.4zm-50.2-6.3v25.7q0 9.4-5.4 14.4-5.4 5-13.8 4.7-7.8-0.2-13-5.2-5.1-5-5.2-13.9v-25.7h7v25.7q0 5.9 3.1 9.1 3.1 3.3 8.1 3.5 5.4 0.3 8.8-3.1 3.4-3.3 3.4-9.5v-25.7c0 0 7 0 7 0zm-83.6 5.8q5.9 6.7 5.9 16.3 0 4.5-1.4 8.6-1.5 4.1-4.1 7.3-2.7 3.2-7.1 5-4.4 1.9-10 1.9-5.5 0-9.9-1.9-4.4-2-7.1-5.2-2.6-3.2-4.1-7.2-1.4-4-1.4-8.4 0-10.1 6.4-16.6 6.3-6.5 16.3-6.5 10.7 0 16.5 6.7zm-31.2 22.3q0.9 2.8 2.7 5.1 1.8 2.4 4.9 3.8 3 1.4 6.9 1.4 7.8 0 11.7-4.6 3.9-4.6 3.9-11.6 0-4.2-1.6-7.9-1.5-3.6-5.1-6.2-3.6-2.5-8.7-2.6-7.5 0-11.6 4.7-4.1 4.6-4.1 12 0.1 3.1 1 5.9zm-62-8.8l12.6-19.4h8.5v0.3l-17.5 25.7v18h-7.1v-18l-17-25.7v-0.3h8.4zm-167.1-67.9h38.2v22.5h-67.4v-119.7h29.2z"/>
		<g id="Layer">
			<g id="Clip-Path" clip-path="url(#cp1)">
				<path id="Layer" class="s2" d="m1252.8 861.9h1192.5v2106.7h-1192.5z"/>
			</g>
		</g>
		<path id="Layer" fill-rule="evenodd" class="s3" d="m2427.9 1346.5c0 0 0.6-18.2-3.2-52 0 1.9 4 216-325.5 418.5-184.5 113.5-334.4 201.9-439.5 310.9-3.8 16.2-8 32.1-11.7 46.8-28.1 109.9-87.4 474.7 295.3 686.3 14.4 7.9 28.3 14.2 41.9 19.3l146.8 1.1c231.6-95 304-645.8 304-645.8 0 0 9.3-526.1-8.1-785.1z"/>
		<g id="Layer">
			<g id="Clip-Path" clip-path="url(#cp2)">
				<path id="Layer" class="s4" d="m1650.4 1346.5h1146.9v1577.1h-1146.9z"/>
			</g>
		</g>
		<g id="Layer">
			<g id="Clip-Path" clip-path="url(#cp3)">
				<path id="Layer" class="s5" d="m1658.5 1003.4h371.8v371.7h-371.8z"/>
			</g>
		</g>
		<path id="Layer" fill-rule="evenodd" class="s6" d="m2438 1948c167-357.7-10.1-601.5-10.1-601.5-15.6 372.5-655.7 479.7-725.1 866.2-41.1 229 58.8 433.5 240.5 544.3 49.9 30.4 105.9 53.8 166.9 68.6 252.1 61.4 458-64.3 562.5-279.2-86 174.2-305 227.1-446.8 160.8-130.4-61.1-150.1-191.7-118.8-283.8 44.9-132.1 238.6-277.5 330.9-475.4z"/>
		<path id="Layer" fill-rule="evenodd" class="s6" d="m2110.6 2589.7l-0.7-1.7 0.4 1.2zm327.5-641.7c167-357.7-10.1-601.5-10.1-601.5-15.7 372.5-655.7 479.7-725.1 866.2-3.6 19.9-6 39.6-7.5 59 1.5-12 32.5-231.4 285.6-387.6 260.3-160.5 401.2-81.2 405.3 34.3 4.1 115.6-96.6 230.8-167.6 311.8-70.3 80.4-174.9 185.3-110 354.5-20.3-54-17.9-112.9-1.5-161.3 44.9-132.1 238.6-277.5 330.9-475.4z"/>
		<path id="Layer" fill-rule="evenodd" class="s7" d="m2548.1 2635.5c-171.8 109.9-368.6 43.8-409.1-81.8-40.6-125.7 75.9-253.7 237.3-445.5 161.3-191.7 131.9-508.1 131.9-508.1 6.7 95.3-7.5 213.6-70.2 347.9-92.3 197.9-285.9 343.3-330.9 475.4-31.3 92.1-11.6 222.7 118.8 283.8 141.8 66.3 360.8 13.4 446.8-160.8 12-24.5 22.6-50.2 31.8-76.9-45.5 66.8-98.8 129.2-156.4 166z"/>
		<path id="Layer" class="s8" d="m4164-560h4000v4000h-4000z"/>
	</g>
</svg>